<svg xmlns="http://www.w3.org/2000/svg" fill="none" viewBox="0 0 20 20"><path fill="#EEEDDE" d="M10 6.75a3.25 3.25 0 1 0 0 6.5 3.25 3.25 0 0 0 0-6.5z"/><path fill="#EEEDDE" fill-rule="evenodd" d="M4.77 1.082a47.472 47.472 0 0 1 10.46 0c1.899.212 3.43 1.707 3.653 3.613a45.67 45.67 0 0 1 0 10.61c-.223 1.906-1.754 3.401-3.652 3.614a47.468 47.468 0 0 1-10.461 0c-1.899-.213-3.43-1.708-3.653-3.613a45.672 45.672 0 0 1 0-10.611C1.34 2.789 2.871 1.294 4.77 1.082zM15 4a1 1 0 1 0 0 2 1 1 0 0 0 0-2zm-9.75 6a4.75 4.75 0 1 1 9.5 0 4.75 4.75 0 0 1-9.5 0z" clip-rule="evenodd"/></svg>