<svg xmlns="http://www.w3.org/2000/svg" fill="none" viewBox="0 0 20 21"><path fill="#EEEDDE" d="M2.75.875a2.125 2.125 0 1 0 0 4.25 2.125 2.125 0 0 0 0-4.25zM.75 6.875A.125.125 0 0 0 .625 7v13c0 .069.056.125.125.125h4A.125.125 0 0 0 4.875 20V7a.125.125 0 0 0-.125-.125h-4zM7.25 6.875A.125.125 0 0 0 7.125 7v13c0 .069.056.125.125.125h4a.125.125 0 0 0 .125-.125v-7a1.875 1.875 0 1 1 3.75 0v7c0 .069.056.125.125.125h4a.125.125 0 0 0 .125-.125v-8.62c0-2.427-2.11-4.325-4.525-4.106a7.168 7.168 0 0 0-2.168.548l-1.307.56V7a.125.125 0 0 0-.125-.125h-4z"/></svg>