<svg xmlns="http://www.w3.org/2000/svg" fill="none" viewBox="0 0 10 18"><path fill="#EEEDDE" d="M9.256 14.154a.208.208 0 0 0-.268-.128c-.39.138-.798.215-1.211.229a1.525 1.525 0 0 1-1.676-1.73.215.215 0 0 0 .002-.03V7.08H9.39a.2.2 0 0 0 .2-.2V4.664a.2.2 0 0 0-.2-.2H6.103V.2a.2.2 0 0 0-.2-.2H3.557a.13.13 0 0 0-.122.13A5.327 5.327 0 0 1 .129 4.78.205.205 0 0 0 0 4.967V6.88c0 .11.09.2.2.2h1.544v5.702c0 1.944 1.438 4.717 5.23 4.656 1.212 0 2.556-.499 2.965-.944a.17.17 0 0 0 .03-.17l-.713-2.169z"/></svg>