<?xml version="1.0" standalone="no"?>
<!DOCTYPE svg PUBLIC "-//W3C//DTD SVG 20010904//EN"
 "http://www.w3.org/TR/2001/REC-SVG-20010904/DTD/svg10.dtd">
<svg version="1.0" xmlns="http://www.w3.org/2000/svg"
 width="1152.000000pt" height="1152.000000pt" viewBox="0 0 1152.000000 1152.000000"
 preserveAspectRatio="xMidYMid meet">
<metadata>
Created by potrace 1.14, written by Peter Selinger 2001-2017
</metadata>
<g transform="translate(0.000000,1152.000000) scale(0.100000,-0.100000)"
fill="#000000" stroke="none">
<path d="M1988 7995 c-1 -1 -46 -5 -98 -8 -444 -26 -836 -265 -1105 -674 -25
-37 -48 -73 -52 -79 -43 -59 -190 -378 -209 -454 -2 -8 -17 -60 -34 -115 -29
-94 -72 -263 -84 -330 -22 -127 -28 -164 -31 -190 -2 -16 -13 -91 -24 -165
-12 -74 -24 -151 -26 -170 -5 -34 -10 -66 -20 -125 -3 -16 -7 -50 -11 -75 -3
-25 -7 -52 -9 -60 -11 -39 -19 -182 -19 -345 -1 -217 5 -284 39 -460 26 -133
129 -401 171 -442 8 -8 14 -21 14 -29 0 -8 4 -14 9 -14 5 0 12 -8 15 -17 14
-42 233 -263 261 -263 3 0 14 -8 25 -17 39 -37 221 -117 312 -137 16 -4 29 -7
30 -7 109 -30 354 -42 528 -26 145 14 339 70 461 133 60 31 191 113 199 124 3
4 10 9 17 11 34 12 181 156 264 259 100 124 238 358 287 485 92 241 121 335
163 528 25 118 26 123 33 177 3 25 9 56 12 70 3 14 7 39 8 55 4 32 16 118 22
150 3 11 7 36 10 55 3 19 16 102 29 184 13 83 22 153 19 158 -3 4 -2 8 3 8 4
0 9 12 9 28 1 15 5 72 9 127 13 159 8 410 -10 530 -7 48 -14 88 -19 111 -2 12
-7 38 -10 59 -3 20 -11 45 -16 56 -6 10 -8 19 -6 19 12 0 -47 154 -98 260 -46
94 -90 163 -151 238 -51 63 -196 186 -266 226 -99 57 -243 109 -339 122 -19 3
-42 7 -50 10 -8 3 -64 8 -125 10 -60 3 -115 7 -122 9 -6 2 -13 2 -15 0z m117
-648 c85 -14 159 -53 223 -118 29 -29 52 -58 52 -66 0 -7 4 -13 9 -13 7 0 64
-118 67 -140 0 -4 16 -77 19 -90 4 -14 16 -101 20 -145 12 -111 1 -396 -19
-515 -3 -14 -7 -52 -11 -85 -4 -32 -8 -62 -10 -65 -1 -3 -6 -32 -10 -65 -3
-32 -8 -62 -10 -65 -1 -3 -5 -32 -9 -65 -3 -33 -8 -69 -10 -80 -2 -11 -7 -40
-10 -65 -3 -25 -8 -56 -10 -70 -3 -14 -7 -45 -10 -70 -3 -25 -8 -54 -10 -65
-2 -11 -7 -40 -10 -65 -11 -78 -21 -129 -57 -275 -53 -212 -112 -361 -199
-495 -45 -69 -184 -210 -206 -210 -8 0 -14 -4 -14 -10 0 -5 -7 -10 -15 -10 -8
0 -15 -3 -15 -8 0 -7 -90 -45 -135 -56 -135 -35 -344 -24 -445 22 -85 38 -157
116 -214 228 -21 42 -55 167 -62 229 -4 28 -8 53 -11 57 -5 9 -3 296 2 353 2
22 7 67 10 100 2 33 7 71 10 84 2 13 7 49 11 80 3 31 8 65 11 76 2 11 6 36 8
55 2 19 11 85 20 145 9 61 18 123 20 138 13 92 16 115 20 137 2 14 7 43 10 65
5 35 12 78 31 180 3 17 19 86 36 155 66 273 170 483 306 620 110 109 194 157
319 183 60 13 234 15 298 4z"/>
<path d="M9318 7362 l-27 -3 0 -1440 0 -1439 27 0 c15 0 79 1 142 1 63 0 138
0 165 0 28 1 55 0 60 -1 6 -1 31 -2 57 -1 l47 1 0 727 0 726 27 40 c79 120
204 180 367 176 94 -2 138 -14 198 -52 66 -41 106 -110 125 -209 3 -18 6 -340
6 -716 1 -375 4 -684 8 -687 6 -4 48 -6 93 -5 9 1 37 1 62 1 25 0 53 0 63 0 9
0 73 -1 141 -1 68 -1 125 1 128 3 5 6 4 1375 -1 1427 -10 93 -20 142 -48 228
-17 52 -37 100 -45 107 -7 8 -13 19 -13 25 0 14 -63 93 -105 132 -65 60 -200
118 -308 134 -253 35 -454 -23 -625 -181 -40 -37 -72 -65 -72 -63 0 1 -1 242
-1 534 l0 532 -34 4 c-18 2 -42 1 -52 -3 -10 -3 -25 -3 -33 1 -8 4 -26 4 -40
0 -14 -3 -44 -3 -67 0 -24 4 -43 3 -43 -2 0 -5 -5 -6 -11 -3 -13 9 -128 10
-136 1 -3 -3 -11 -2 -17 2 -6 4 -23 6 -38 4z"/>
<path d="M4880 6543 c-182 -21 -332 -92 -451 -214 l-49 -50 -1 58 c-1 32 -3
65 -4 73 -1 8 -3 34 -4 58 l-1 42 -234 0 -234 0 -1 -702 c0 -387 -1 -705 -2
-708 -1 -3 0 -9 1 -15 7 -32 6 -56 -2 -61 -4 -3 -6 -10 -2 -15 10 -17 12 -59
2 -65 -4 -3 -6 -10 -2 -15 10 -17 12 -59 2 -65 -4 -3 -6 -10 -2 -15 10 -17 12
-59 2 -65 -4 -3 -6 -10 -2 -15 10 -17 12 -59 2 -65 -4 -3 -5 -10 -2 -16 4 -6
6 -53 6 -104 -1 -51 3 -96 8 -99 8 -5 70 -6 183 -4 9 0 37 0 62 0 25 0 51 0
58 1 6 0 17 -1 22 -2 6 -1 44 -2 85 -1 l76 1 0 729 c0 675 1 731 17 749 9 10
17 22 17 27 0 19 103 105 157 131 53 25 68 28 168 29 129 0 153 -5 214 -42 56
-35 101 -105 117 -181 8 -40 12 -243 13 -687 0 -346 1 -658 1 -692 l0 -63 58
0 c96 -1 125 1 134 6 4 3 8 2 8 -3 0 -8 97 -9 105 -1 3 2 28 2 57 -1 29 -3 71
-4 92 -1 l40 5 0 710 1 710 29 49 c78 133 197 199 353 197 172 -3 274 -75 310
-221 3 -14 7 -343 8 -733 1 -389 4 -710 7 -713 3 -2 34 -4 69 -4 35 0 71 1 79
1 8 0 47 0 85 0 39 0 79 -1 90 -1 11 0 51 0 89 0 38 0 72 2 75 4 7 5 6 1435
-2 1476 -2 14 -7 45 -12 70 -47 287 -225 465 -505 507 -80 12 -278 6 -320 -10
-8 -3 -38 -12 -66 -20 -119 -34 -244 -123 -331 -234 -26 -33 -43 -42 -43 -22
0 27 -127 179 -150 179 -4 0 -10 4 -12 9 -5 13 -124 71 -146 71 -10 0 -22 4
-28 10 -5 5 -26 10 -47 12 -20 1 -37 5 -37 8 0 5 -166 8 -210 3z"/>
<path d="M7937 6543 c-2 -1 -24 -5 -49 -7 -79 -8 -205 -44 -284 -80 -210 -98
-363 -274 -391 -451 -2 -16 -6 -39 -8 -51 -2 -11 0 -25 3 -31 4 -6 102 -9 250
-9 133 0 242 1 243 1 0 0 3 20 6 45 10 83 87 171 174 199 53 17 78 21 139 22
157 3 266 -61 311 -181 20 -53 36 -232 24 -270 -4 -13 -34 -15 -192 -16 -199
0 -294 -6 -383 -24 -30 -6 -65 -13 -78 -16 -76 -15 -238 -82 -270 -111 -7 -7
-18 -13 -23 -13 -18 0 -145 -135 -171 -182 -54 -97 -72 -176 -72 -318 -1 -105
12 -176 43 -235 8 -16 15 -32 16 -35 2 -12 56 -88 87 -121 102 -108 255 -187
403 -206 65 -9 219 -8 270 0 84 15 219 70 253 103 7 8 17 14 22 14 5 0 32 23
61 50 29 28 53 50 54 50 2 0 8 -25 19 -80 11 -50 32 -101 45 -104 9 -3 30 -6
46 -6 89 0 120 -1 123 -5 2 -2 14 0 26 4 11 5 30 5 40 1 11 -3 39 -3 63 0 23
4 43 4 43 1 0 -10 143 -2 153 8 5 5 3 22 -6 42 -18 38 -48 141 -53 179 -13 93
-16 228 -19 715 -1 352 -6 562 -13 583 -6 17 -9 32 -7 32 7 0 -33 105 -59 156
-30 55 -119 155 -181 201 -85 63 -244 122 -375 139 -54 7 -278 13 -283 7z
m348 -1123 c6 -1 12 -1 15 0 14 5 50 6 52 1 0 -3 2 -85 4 -181 2 -155 0 -179
-17 -213 -71 -141 -293 -231 -480 -194 -63 12 -142 72 -175 132 -39 71 -35
185 11 275 54 106 168 162 365 178 77 6 200 7 225 2z"/>
</g>
</svg>
