<svg xmlns="http://www.w3.org/2000/svg" fill="none" viewBox="0 0 72 42"><path fill="#EEEDDE" d="m20.021 18.164-.668 4.29a18.982 18.982 0 0 1-1.09 4.13 12.687 12.687 0 0 1-2.02 3.516 8.837 8.837 0 0 1-3.06 2.425c-1.206.586-2.607.862-4.2.827-1.524-.036-2.796-.37-3.815-1.002a6.684 6.684 0 0 1-2.356-2.497c-.55-1.043-.908-2.203-1.072-3.48a16.112 16.112 0 0 1 .018-3.902l.65-4.29c.223-1.429.586-2.812 1.09-4.148A13.366 13.366 0 0 1 5.52 10.43a9.244 9.244 0 0 1 3.11-2.514c1.22-.621 2.632-.908 4.237-.861 1.547.035 2.818.38 3.815 1.037a6.672 6.672 0 0 1 2.338 2.601c.55 1.067.896 2.25 1.037 3.551.14 1.29.129 2.596-.035 3.92zm-5.203 4.307.633-4.377c.094-.645.152-1.36.176-2.145a9.326 9.326 0 0 0-.176-2.303c-.14-.738-.44-1.353-.896-1.845-.446-.492-1.12-.756-2.022-.791-.973-.047-1.793.146-2.46.58a5.137 5.137 0 0 0-1.618 1.74 10.47 10.47 0 0 0-.967 2.355 22.758 22.758 0 0 0-.51 2.444l-.632 4.36c-.082.644-.14 1.359-.176 2.144a8.842 8.842 0 0 0 .21 2.25c.165.703.47 1.295.915 1.775.457.469 1.13.72 2.021.756.961.047 1.77-.135 2.426-.545a4.963 4.963 0 0 0 1.6-1.67 9.33 9.33 0 0 0 .949-2.303c.234-.832.41-1.64.527-2.425zM27.477 18.922V29h-3.094V16.32H27.3l.176 2.602zm-.457 3.281h-.95c0-.883.106-1.695.317-2.437.218-.743.539-1.387.96-1.934a4.359 4.359 0 0 1 1.56-1.289c.624-.305 1.347-.457 2.167-.457.57 0 1.094.086 1.57.258.477.164.887.425 1.231.785.352.351.621.812.809 1.383.187.562.28 1.238.28 2.027V29h-3.093v-8.145c0-.593-.086-1.058-.258-1.394a1.392 1.392 0 0 0-.715-.703c-.312-.14-.687-.211-1.125-.211-.484 0-.902.098-1.253.293-.344.187-.63.45-.856.785a3.792 3.792 0 0 0-.492 1.16 6.26 6.26 0 0 0-.152 1.418zm7.71-.574-1.277.234a7.945 7.945 0 0 1 .328-2.238c.211-.703.52-1.316.926-1.84a4.317 4.317 0 0 1 1.535-1.242c.617-.305 1.328-.457 2.133-.457.625 0 1.188.09 1.688.27.507.171.94.449 1.3.831.36.375.633.864.82 1.465.196.602.294 1.336.294 2.203V29h-3.118v-8.156c0-.617-.086-1.09-.257-1.418a1.346 1.346 0 0 0-.715-.68c-.313-.133-.68-.2-1.102-.2-.43 0-.804.083-1.125.247a2.304 2.304 0 0 0-.797.656c-.21.281-.37.61-.48.985a4.47 4.47 0 0 0-.153 1.195zm17.508 4.676v-5.848c0-.43-.074-.8-.222-1.113a1.609 1.609 0 0 0-.68-.727c-.305-.172-.691-.258-1.16-.258-.414 0-.778.07-1.09.211-.305.14-.54.34-.703.598-.164.25-.246.539-.246.867H45.03c0-.523.125-1.02.375-1.488a3.98 3.98 0 0 1 1.067-1.266 5.256 5.256 0 0 1 1.675-.879c.657-.21 1.391-.316 2.204-.316.96 0 1.816.164 2.566.492.758.32 1.352.805 1.781 1.453.438.649.657 1.465.657 2.45v5.53c0 .634.038 1.177.117 1.63.086.445.21.832.375 1.16V29h-3.153c-.148-.32-.261-.727-.34-1.219a9.545 9.545 0 0 1-.117-1.476zm.434-5.028.023 1.84h-1.957c-.484 0-.91.051-1.277.152-.367.094-.668.235-.902.422a1.71 1.71 0 0 0-.528.657c-.117.25-.175.535-.175.855 0 .313.07.594.21.844.149.25.36.45.633.598.282.14.61.21.985.21.547 0 1.023-.109 1.43-.328.406-.226.722-.5.949-.82.226-.32.347-.625.363-.914l.89 1.336c-.109.32-.273.66-.492 1.02-.218.359-.5.695-.843 1.007-.344.313-.758.57-1.243.774-.484.203-1.047.304-1.687.304-.82 0-1.555-.164-2.203-.492a3.905 3.905 0 0 1-1.535-1.348c-.376-.57-.563-1.218-.563-1.945 0-.672.125-1.265.375-1.781s.621-.95 1.113-1.3c.492-.36 1.102-.63 1.828-.81.735-.187 1.575-.28 2.52-.28h2.086zM61.18 11v18h-3.106V11h3.106zm-.492 11.203h-.915c0-.883.118-1.695.352-2.437a6.04 6.04 0 0 1 .996-1.934c.43-.555.941-.984 1.535-1.289a4.345 4.345 0 0 1 1.992-.457c.625 0 1.192.09 1.7.27.515.171.957.449 1.324.831.367.383.648.883.844 1.5.203.61.304 1.352.304 2.227V29h-3.117v-8.11c0-.585-.086-1.046-.258-1.382a1.54 1.54 0 0 0-.738-.738c-.313-.149-.7-.223-1.16-.223-.5 0-.93.098-1.29.293-.359.187-.655.45-.89.785a3.828 3.828 0 0 0-.515 1.16c-.11.438-.164.91-.164 1.418z"/></svg>