<svg xmlns="http://www.w3.org/2000/svg" fill="none" viewBox="0 0 48 48"><path fill="#203239" fill-rule="evenodd" d="M13.423 7.942c7.037-.63 14.117-.63 21.154 0l3.034.271a6.561 6.561 0 0 1 5.908 5.586 70.515 70.515 0 0 1 0 20.402 6.561 6.561 0 0 1-5.908 5.586l-3.034.271c-7.037.63-14.117.63-21.154 0l-3.034-.271A6.561 6.561 0 0 1 4.48 34.2a70.517 70.517 0 0 1 0-20.402 6.561 6.561 0 0 1 5.908-5.586l3.034-.271zm-1.712 5.737A1.5 1.5 0 0 0 9.5 15v19a1.5 1.5 0 1 0 3 0V17.512l10.789 5.81a1.5 1.5 0 0 0 1.422 0L35.5 17.51V34a1.5 1.5 0 1 0 3 0V15a1.5 1.5 0 0 0-2.211-1.32L24 20.295 11.711 13.68z" clip-rule="evenodd"/></svg>